# xmcd
# 
# Track frame offsets:
#     150
#     13059
#     31096
#     42325
#     61213
#     75603
#     94042
#     107043
#     120456
#     137313
#     152717
#     165831
#     179918
#     199097
#     219817
#     236684
# 
# Disc length: 3424
# 
# Revision: 3
# Processed by: cddbd v1.5.2PL0 Copyright (c) Steve Scherf et al.
# Submitted via: fre:ac v1.0.17
# 
DISCID=c40d5e10
DTITLE=Denver, John - Legendary John Denver [Disk 2]
DYEAR=0
DGENRE=Blues
TTITLE0=Thank God I'm A Country Boy
TTITLE1=Some Days Are Diamonds
TTITLE2=Follow Me
TTITLE3=Fly Away
TTITLE4=Shanghai Breezes
TTITLE5=Wild Montana Skies
TTITLE6=Love Again
TTITLE7=Perhaps Love
TTITLE8=Is It Love
TTITLE9=Friends With You
TTITLE10=The Flower That Shattered The Stone
TTITLE11=Starwood In Aspen
TTITLE12=Don't Close Your Eyes Tonight
TTITLE13=Sing Australia
TTITLE14=Like A Sad Song
TTITLE15=My Sweet Lady
EXTD=1999 BMG Aust
EXTT0=
EXTT1=Some Days Are Stone
EXTT2=
EXTT3=with Olivia Newton John
EXTT4=
EXTT5=with Emmy Lou Harris
EXTT6=
EXTT7=with Placido Domingo
EXTT8=
EXTT9=
EXTT10=
EXTT11=
EXTT12=
EXTT13=
EXTT14=
EXTT15=
PLAYORDER=
